custom-analysis
version=1
nRows=4
nColumns=129
inDegrees=no

This file contains tibia displacement and acting force.

Units are S.I. units (seconds, meters, Newtons, ...)
Angles are in degrees.

endheader
time	displacement	knee_angle	aACL_R_force	pACL_R_force	aPCL_R_force	pPCL_R_force	aMCL_R_force	aLCL_R_force	aPCL_L_force	pPCL_L_force	aMCL_L_force	aLCL_L_force	aACL_R_length	pACL_R_length	aPCL_R_length	pPCL_R_length	aMCL_R_length	aLCL_R_length	aPCL_L_length	pPCL_L_length	aMCL_L_length	aLCL_L_length	aACL_R_strain	pACL_R_strain	aPCL_R_strain	pPCL_R_strain	aMCL_R_strain	aLCL_R_strain	aPCL_L_strain	pPCL_L_strain	aMCL_L_strain	aLCL_L_strain	femur_lat_meniscii_l.femur_lat_l.force.X	femur_lat_meniscii_l.femur_lat_l.force.Y	femur_lat_meniscii_l.femur_lat_l.force.Z	femur_lat_meniscii_l.femur_lat_l.torque.X	femur_lat_meniscii_l.femur_lat_l.torque.Y	femur_lat_meniscii_l.femur_lat_l.torque.Z	femur_lat_meniscii_l.meniscus_lat_l.force.X	femur_lat_meniscii_l.meniscus_lat_l.force.Y	femur_lat_meniscii_l.meniscus_lat_l.force.Z	femur_lat_meniscii_l.meniscus_lat_l.torque.X	femur_lat_meniscii_l.meniscus_lat_l.torque.Y	femur_lat_meniscii_l.meniscus_lat_l.torque.Z	femur_med_meniscii_l.femur_med_l.force.X	femur_med_meniscii_l.femur_med_l.force.Y	femur_med_meniscii_l.femur_med_l.force.Z	femur_med_meniscii_l.femur_med_l.torque.X	femur_med_meniscii_l.femur_med_l.torque.Y	femur_med_meniscii_l.femur_med_l.torque.Z	femur_med_meniscii_l.meniscus_med_l.force.X	femur_med_meniscii_l.meniscus_med_l.force.Y	femur_med_meniscii_l.meniscus_med_l.force.Z	femur_med_meniscii_l.meniscus_med_l.torque.X	femur_med_meniscii_l.meniscus_med_l.torque.Y	femur_med_meniscii_l.meniscus_med_l.torque.Z	femur_lat_meniscii_r.femur_lat_r.force.X	femur_lat_meniscii_r.femur_lat_r.force.Y	femur_lat_meniscii_r.femur_lat_r.force.Z	femur_lat_meniscii_r.femur_lat_r.torque.X	femur_lat_meniscii_r.femur_lat_r.torque.Y	femur_lat_meniscii_r.femur_lat_r.torque.Z	femur_lat_meniscii_r.meniscus_lat_r.force.X	femur_lat_meniscii_r.meniscus_lat_r.force.Y	femur_lat_meniscii_r.meniscus_lat_r.force.Z	femur_lat_meniscii_r.meniscus_lat_r.torque.X	femur_lat_meniscii_r.meniscus_lat_r.torque.Y	femur_lat_meniscii_r.meniscus_lat_r.torque.Z	femur_med_meniscii_r.femur_med_r.force.X	femur_med_meniscii_r.femur_med_r.force.Y	femur_med_meniscii_r.femur_med_r.force.Z	femur_med_meniscii_r.femur_med_r.torque.X	femur_med_meniscii_r.femur_med_r.torque.Y	femur_med_meniscii_r.femur_med_r.torque.Z	femur_med_meniscii_r.meniscus_med_r.force.X	femur_med_meniscii_r.meniscus_med_r.force.Y	femur_med_meniscii_r.meniscus_med_r.force.Z	femur_med_meniscii_r.meniscus_med_r.torque.X	femur_med_meniscii_r.meniscus_med_r.torque.Y	femur_med_meniscii_r.meniscus_med_r.torque.Z	femur_med_tibia_l.tibia_upper_l.force.X	femur_med_tibia_l.tibia_upper_l.force.Y	femur_med_tibia_l.tibia_upper_l.force.Z	femur_med_tibia_l.tibia_upper_l.torque.X	femur_med_tibia_l.tibia_upper_l.torque.Y	femur_med_tibia_l.tibia_upper_l.torque.Z	femur_med_tibia_l.femur_med_l.force.X	femur_med_tibia_l.femur_med_l.force.Y	femur_med_tibia_l.femur_med_l.force.Z	femur_med_tibia_l.femur_med_l.torque.X	femur_med_tibia_l.femur_med_l.torque.Y	femur_med_tibia_l.femur_med_l.torque.Z	femur_lat_tibia_l.tibia_upper_l.force.X	femur_lat_tibia_l.tibia_upper_l.force.Y	femur_lat_tibia_l.tibia_upper_l.force.Z	femur_lat_tibia_l.tibia_upper_l.torque.X	femur_lat_tibia_l.tibia_upper_l.torque.Y	femur_lat_tibia_l.tibia_upper_l.torque.Z	femur_lat_tibia_l.femur_lat_l.force.X	femur_lat_tibia_l.femur_lat_l.force.Y	femur_lat_tibia_l.femur_lat_l.force.Z	femur_lat_tibia_l.femur_lat_l.torque.X	femur_lat_tibia_l.femur_lat_l.torque.Y	femur_lat_tibia_l.femur_lat_l.torque.Z	femur_med_tibia_r.tibia_upper_r.force.X	femur_med_tibia_r.tibia_upper_r.force.Y	femur_med_tibia_r.tibia_upper_r.force.Z	femur_med_tibia_r.tibia_upper_r.torque.X	femur_med_tibia_r.tibia_upper_r.torque.Y	femur_med_tibia_r.tibia_upper_r.torque.Z	femur_med_tibia_r.femur_med_r.force.X	femur_med_tibia_r.femur_med_r.force.Y	femur_med_tibia_r.femur_med_r.force.Z	femur_med_tibia_r.femur_med_r.torque.X	femur_med_tibia_r.femur_med_r.torque.Y	femur_med_tibia_r.femur_med_r.torque.Z	femur_lat_tibia_r.tibia_upper_r.force.X	femur_lat_tibia_r.tibia_upper_r.force.Y	femur_lat_tibia_r.tibia_upper_r.force.Z	femur_lat_tibia_r.tibia_upper_r.torque.X	femur_lat_tibia_r.tibia_upper_r.torque.Y	femur_lat_tibia_r.tibia_upper_r.torque.Z	femur_lat_tibia_r.femur_lat_r.force.X	femur_lat_tibia_r.femur_lat_r.force.Y	femur_lat_tibia_r.femur_lat_r.force.Z	femur_lat_tibia_r.femur_lat_r.torque.X	femur_lat_tibia_r.femur_lat_r.torque.Y	femur_lat_tibia_r.femur_lat_r.torque.Z
      0.00000000	      0.00000000	     80.00030777	      0.00000000	      0.00000000	   1161.52471038	    442.02990514	      0.00000000	      0.00000000	      0.00000000	      0.00000000	      0.00000001	      0.00000000	      0.02599016	      0.01859633	      0.03792441	      0.03412675	      0.05375973	      0.04889514	      0.01525851	      0.01651186	      0.06550154	      0.04489616	     -0.21255055	     -0.29980268	      0.29015233	      0.14952261	     -0.16912057	     -0.14911556	      0.00000079	     -0.32847694	      0.00000060	     -0.00000086	      2.76307435	     50.99597937	     -9.56042239	      5.21997485	     -0.02578839	      1.48581788	     -2.76307435	    -50.99597937	      9.56042239	     -1.74637766	      0.02558040	     -0.48301696	     -3.31599387	     20.97615968	     -3.40468921	      0.94473225	     -0.02138609	     -1.00501789	      3.31599387	    -20.97615968	      3.40468921	      0.28075727	      0.00368718	     -0.29758878	   2670.40886701	    484.90445071	     -1.08940211	    -11.47095791	     65.76153374	   1086.39661139	  -2670.40886701	   -484.90445071	      1.08940211	     14.24194831	    -78.63173753	    -22.64043465	   5704.73253110	  -2293.70879359	    306.32301913	   -169.61587005	   -117.17607363	   2305.69337343	  -5704.73253110	   2293.70879359	   -306.32301913	     37.99298077	     81.46754698	   -121.82740514	      0.00000000	      0.00000000	      0.00000000	      0.00000000	      0.00000000	      0.00000000	      0.00000000	      0.00000000	      0.00000000	      0.00000000	      0.00000000	      0.00000000	      0.00000000	      0.00000000	      0.00000000	      0.00000000	      0.00000000	      0.00000000	      0.00000000	      0.00000000	      0.00000000	      0.00000000	      0.00000000	      0.00000000	   -157.30181830	     -8.35542776	     14.36430717	     -0.27505341	      2.43501057	     -1.60408147	    157.30181830	      8.35542776	    -14.36430717	      5.96801256	     -2.81256251	     63.72738520	   -180.56168912	    -35.39602649	    -55.33069228	      1.74443807	     -6.79958852	     -1.34329721	    180.56168912	     35.39602649	     55.33069228	    -23.34702788	      4.45486631	     73.33939540
      0.00014616	     -0.00001588	     79.99846966	      0.00000000	      0.00000000	   1222.32835383	    600.63269096	      0.00000000	      0.00000000	      0.00000000	      0.00000000	      0.00000001	      0.00000000	      0.02599326	      0.01860291	      0.03793834	      0.03414105	      0.05376731	      0.04890786	      0.01525851	      0.01651186	      0.06550154	      0.04489616	     -0.21245662	     -0.29955513	      0.29062596	      0.15000439	     -0.16900339	     -0.14889411	      0.00000079	     -0.32847694	      0.00000060	     -0.00000086	      2.76307435	     50.99597937	     -9.56042239	      5.21997485	     -0.02578839	      1.48581788	     -2.76307435	    -50.99597937	      9.56042239	     -1.74637766	      0.02558040	     -0.48301696	     -3.31599387	     20.97615968	     -3.40468921	      0.94473225	     -0.02138609	     -1.00501789	      3.31599387	    -20.97615968	      3.40468921	      0.28075727	      0.00368718	     -0.29758878	   1616.90004433	    505.69125178	    -64.75602814	     14.03315543	     39.59732847	    657.09262228	  -1616.90004433	   -505.69125178	     64.75602814	     13.89221091	    -45.68724030	     -7.37842359	   2161.36468833	  -1097.57811237	    112.63306712	    -66.68166466	    -43.36410662	    874.91288638	  -2161.36468833	   1097.57811237	   -112.63306712	     17.05646763	     29.92483012	    -53.59553130	      0.00000000	      0.00000000	      0.00000000	      0.00000000	      0.00000000	      0.00000000	      0.00000000	      0.00000000	      0.00000000	      0.00000000	      0.00000000	      0.00000000	      0.00000000	      0.00000000	      0.00000000	      0.00000000	      0.00000000	      0.00000000	      0.00000000	      0.00000000	      0.00000000	      0.00000000	      0.00000000	      0.00000000	   -106.90675817	     -6.93701027	     10.03001378	     -0.20567391	      1.66528218	     -1.04450947	    106.90675817	      6.93701027	    -10.03001378	      4.18607895	     -1.91502510	     43.29766473	   -130.42016061	    -26.85682473	    -40.13322383	      1.29600082	     -4.91687716	     -0.92197314	    130.42016061	     26.85682473	     40.13322383	    -16.95896586	      3.21915368	     52.95771010
      0.00029232	     -0.00004722	     79.99493831	      0.00000000	      0.00000000	   1245.82975794	    654.98892461	      0.00000000	      0.00000000	      0.00000000	      0.00000000	      0.00000001	      0.00000000	      0.02600057	      0.01861689	      0.03796609	      0.03416957	      0.05378290	      0.04893318	      0.01525851	      0.01651186	      0.06550154	      0.04489616	     -0.21223523	     -0.29902875	      0.29157015	      0.15096506	     -0.16876245	     -0.14845360	      0.00000079	     -0.32847694	      0.00000060	     -0.00000086	      2.76307435	     50.99597937	     -9.56042239	      5.21997485	     -0.02578839	      1.48581788	     -2.76307435	    -50.99597937	      9.56042239	     -1.74637766	      0.02558040	     -0.48301696	     -3.31599387	     20.97615968	     -3.40468921	      0.94473225	     -0.02138609	     -1.00501789	      3.31599387	    -20.97615968	      3.40468921	      0.28075727	      0.00368718	     -0.29758878	   1227.32326913	    470.95996380	    -78.60647619	     20.62318350	     29.95164440	    498.32801629	  -1227.32326913	   -470.95996380	     78.60647619	     12.58448748	    -33.79606298	     -2.87290941	   1066.43738705	   -754.02033484	     67.48422830	    -41.45992699	    -20.12507876	    433.06644527	  -1066.43738705	    754.02033484	    -67.48422830	     11.26032346	     13.17611990	    -33.47189308	      0.00000000	      0.00000000	      0.00000000	      0.00000000	      0.00000000	      0.00000000	      0.00000000	      0.00000000	      0.00000000	      0.00000000	      0.00000000	      0.00000000	      0.00000000	      0.00000000	      0.00000000	      0.00000000	      0.00000000	      0.00000000	      0.00000000	      0.00000000	      0.00000000	      0.00000000	      0.00000000	      0.00000000	    -81.24686621	     -5.42026056	      7.26521271	     -0.15429499	      1.25769322	     -0.78818046	     81.24686621	      5.42026056	     -7.26521271	      3.03928736	     -1.45740146	     32.90205349	   -105.20195540	    -21.83857971	    -32.47878059	      1.05177458	     -3.96928599	     -0.73858825	    105.20195540	     21.83857971	     32.47878059	    -13.72627420	      2.59758199	     42.71486277
      0.00043847	     -0.00008316	     79.99096315	      0.00000000	      0.00000000	   1257.52170412	    676.55313396	      0.00000000	      0.00000000	      0.00000000	      0.00000000	      0.00000001	      0.00000000	      0.02601039	      0.01863418	      0.03799810	      0.03420250	      0.05380128	      0.04896220	      0.01525851	      0.01651186	      0.06550154	      0.04489616	     -0.21193776	     -0.29837754	      0.29265896	      0.15207413	     -0.16847840	     -0.14794857	      0.00000079	     -0.32847694	      0.00000060	     -0.00000086	      2.76307435	     50.99597937	     -9.56042239	      5.21997485	     -0.02578839	      1.48581788	     -2.76307435	    -50.99597937	      9.56042239	     -1.74637766	      0.02558040	     -0.48301696	     -3.31599387	     20.97615968	     -3.40468921	      0.94473225	     -0.02138609	     -1.00501789	      3.31599387	    -20.97615968	      3.40468921	      0.28075727	      0.00368718	     -0.29758878	   1065.15147527	    436.01186619	    -81.48817187	     22.66789065	     25.98631353	    432.40392626	  -1065.15147527	   -436.01186619	     81.48817187	     11.50460856	    -28.97612683	     -1.72431875	    801.84407547	   -652.57018977	     61.82024467	    -37.19261898	    -14.59655906	    326.16186646	   -801.84407547	    652.57018977	    -61.82024467	      9.71122599	      9.07647589	    -27.98203023	      0.00000000	      0.00000000	      0.00000000	      0.00000000	      0.00000000	      0.00000000	      0.00000000	      0.00000000	      0.00000000	      0.00000000	      0.00000000	      0.00000000	      0.00000000	      0.00000000	      0.00000000	      0.00000000	      0.00000000	      0.00000000	      0.00000000	      0.00000000	      0.00000000	      0.00000000	      0.00000000	      0.00000000	    -65.11185353	     -4.25003854	      5.51867771	     -0.11918402	      1.00152550	     -0.63549092	     65.11185353	      4.25003854	     -5.51867771	      2.31118204	     -1.17002605	     26.36790864	    -88.95463976	    -18.29887749	    -27.46748669	      0.88518904	     -3.35544602	     -0.63280361	     88.95463976	     18.29887749	     27.46748669	    -11.60431369	      2.19599449	     36.11957908
